<mxfile host="app.diagrams.net" modified="2024-11-25T06:54:10.304Z" agent="Mozilla/5.0 (Windows NT 10.0; Win64; x64) AppleWebKit/537.36 (KHTML, like Gecko) Chrome/130.0.0.0 Safari/537.36" version="24.6.4" etag="UHLxWxVN_XetBFdVzJnv" type="github">
  <diagram name="หน้า-1" id="sFK3EGAeuQ91lxSe_N-L">
    <mxGraphModel>
      <root>
        <mxCell id="0" />
        <mxCell id="1" parent="0" />
      </root>
    </mxGraphModel>
  </diagram>
</mxfile>
